<svg 
  xmlns="http://www.w3.org/2000/svg" 
  viewBox="24 143 116 134" 
  preserveAspectRatio="xMidYMid meet"
>
  <g transform-origin="center">
    <!-- S Shape -->
    <g>
      <path 
        fill="#ffffff" 
        fill-opacity="1" 
        fill-rule="nonzero" 
        d="M87.402344 210.871094 C86.511719 208.058594 83.855469 206.183594 80.90625 206.183594 L73.304688 206.183594 C72.84375 206.183594 72.394531 206.136719 71.957031 206.050781 C69.414062 205.546875 67.371094 203.644531 66.667969 201.179688 C66.496094 200.574219 66.398438 199.9375 66.398438 199.277344 C66.398438 195.460938 69.492188 192.371094 73.304688 192.371094 L88.472656 192.371094 L85.148438 198.765625 L96.238281 187.5 L72.996094 187.5 C66.664062 187.5 61.53125 192.632812 61.53125 198.964844 L61.53125 199.585938 C61.53125 200.128906 61.566406 200.660156 61.640625 201.179688 C61.890625 202.96875 62.550781 204.625 63.523438 206.050781 C65.535156 208.992188 68.882812 210.949219 72.691406 211.050781 C72.792969 211.050781 72.894531 211.054688 72.996094 211.054688 L87.457031 211.054688 C87.4375 210.992188 87.421875 210.929688 87.402344 210.871094 Z"
      />
      <path 
        fill="rgb(255,119,0)" 
        fill-opacity="1" 
        fill-rule="nonzero" 
        d="M93.605469 210.433594 C93.355469 208.644531 92.695312 206.988281 91.722656 205.5625 C89.710938 202.621094 86.363281 200.664062 82.554688 200.566406 C82.453125 200.5625 82.351562 200.5625 82.25 200.5625 L67.730469 200.5625 C67.746094 200.621094 67.765625 200.683594 67.785156 200.746094 C68.675781 203.554688 71.332031 205.429688 74.28125 205.429688 L81.941406 205.429688 C82.402344 205.429688 82.851562 205.476562 83.289062 205.5625 C85.832031 206.066406 87.871094 207.96875 88.578125 210.433594 C88.753906 211.039062 88.847656 211.675781 88.847656 212.335938 C88.847656 216.152344 85.753906 219.246094 81.941406 219.246094 L66.839844 219.246094 L70.097656 212.96875 L63.917969 219.246094 L63.875 219.246094 L59.003906 224.113281 L59.125 224.113281 L59.003906 224.234375 L59.367188 224.113281 L82.25 224.113281 C88.582031 224.113281 93.71875 218.980469 93.71875 212.648438 L93.71875 212.027344 C93.71875 211.488281 93.679688 210.953125 93.605469 210.433594 Z"
      />
    </g>

    <!-- Arrows -->
    <g>
      <path 
        fill="rgb(255,119,0)" 
        fill-opacity="1" 
        fill-rule="evenodd" 
        d="M122.179688 194.84375 L86.691406 159.332031 C84.089844 156.730469 80.222656 156.066406 77 157.375 C78.066406 157.820312 79.066406 158.464844 79.933594 159.332031 L115.425781 194.84375 C117.648438 197.066406 118.445312 200.222656 117.824219 203.109375 L116.378906 206.375 C116.089844 206.777344 115.78125 207.132812 115.445312 207.488281 L79.914062 242.976562 C79.046875 243.84375 78.046875 244.488281 76.980469 244.933594 C80.203125 246.242188 84.070312 245.597656 86.667969 242.976562 L122.179688 207.488281 C125.648438 204 125.648438 198.308594 122.179688 194.84375 Z"
      />
      <path 
        fill="rgb(255,119,0)" 
        fill-opacity="1" 
        fill-rule="evenodd" 
        d="M34.957031 215.730469 C31.355469 212.132812 31.355469 206.242188 34.957031 202.664062 L71.710938 165.910156 C72.601562 165.019531 73.644531 164.355469 74.757812 163.886719 C71.421875 162.53125 67.421875 163.199219 64.710938 165.910156 L27.933594 202.664062 C24.355469 206.242188 24.355469 212.132812 27.933594 215.730469 L64.691406 252.488281 C67.402344 255.199219 71.378906 255.867188 74.734375 254.511719 C73.625 254.066406 72.601562 253.398438 71.691406 252.488281 Z"
      />
      <path 
        fill="#ffffff" 
        fill-opacity="1" 
        fill-rule="evenodd" 
        d="M127.15625 188.199219 L86.335938 147.398438 C82.335938 143.398438 75.800781 143.398438 71.824219 147.398438 L31.023438 188.199219 C28.023438 191.199219 27.289062 195.644531 28.777344 199.355469 C29.289062 198.132812 30.023438 196.976562 31.023438 195.976562 L71.824219 155.175781 C75.824219 151.175781 82.335938 151.175781 86.335938 155.175781 L127.136719 195.976562 C128.136719 196.976562 128.871094 198.109375 129.378906 199.355469 C130.890625 195.621094 130.15625 191.199219 127.15625 188.199219 Z"
      />
      <path 
        fill="#ffffff" 
        fill-opacity="1" 
        fill-rule="evenodd" 
        d="M127.402344 206.019531 C126.957031 207.132812 126.292969 208.15625 125.378906 209.066406 L88.644531 245.800781 C85.046875 249.398438 79.15625 249.398438 75.578125 245.800781 L38.800781 209.042969 C37.910156 208.15625 37.246094 207.109375 36.777344 206 C35.421875 209.355469 36.089844 213.332031 38.800781 216.042969 L75.558594 252.800781 C79.15625 256.398438 85.023438 256.398438 88.625 252.800781 L125.378906 216.042969 C128.089844 213.355469 128.757812 209.355469 127.402344 206.019531 Z"
      />
    </g>
  </g>
</svg>
