<?xml version="1.0" encoding="utf-8" ?>
<svg baseProfile="tiny" height="100%" version="1.2" width="100%" xmlns="http://www.w3.org/2000/svg" xmlns:ev="http://www.w3.org/2001/xml-events" xmlns:xlink="http://www.w3.org/1999/xlink"><defs /><path d="M 872,627 L 872,647 L 914,647 L 915,648 L 909,654 L 909,655 L 903,661 L 903,662 L 897,668 L 897,669 L 891,675 L 891,676 L 885,682 L 885,683 L 878,690 L 878,691 L 873,696 L 873,697 L 869,701 L 869,718 L 943,718 L 943,699 L 899,699 L 898,698 L 898,697 L 900,695 L 900,694 L 905,689 L 905,688 L 910,683 L 910,682 L 915,677 L 915,676 L 920,671 L 920,670 L 925,665 L 925,664 L 930,659 L 930,658 L 934,654 L 934,653 L 938,649 L 938,648 L 942,644 L 942,627 L 941,627 L 940,628 L 873,628 Z" fill="black" stroke="none" /><path d="M 780,626 L 779,627 L 777,627 L 776,628 L 774,628 L 773,629 L 772,629 L 770,631 L 769,631 L 765,635 L 765,636 L 762,639 L 762,640 L 760,642 L 759,641 L 759,634 L 760,633 L 760,632 L 759,631 L 759,629 L 760,628 L 738,628 L 737,627 L 736,627 L 736,718 L 760,718 L 760,663 L 761,662 L 761,660 L 762,659 L 762,658 L 769,651 L 770,651 L 771,650 L 773,650 L 774,649 L 777,649 L 778,648 L 784,648 L 785,649 L 789,649 L 789,626 Z" fill="black" stroke="none" /><path d="M 678,625 L 677,626 L 671,626 L 670,627 L 667,627 L 666,628 L 665,628 L 664,629 L 662,629 L 661,630 L 660,630 L 658,632 L 657,632 L 649,640 L 649,641 L 648,642 L 648,643 L 647,644 L 647,645 L 646,646 L 646,648 L 645,649 L 645,653 L 644,654 L 644,655 L 666,655 L 666,654 L 667,653 L 667,651 L 668,650 L 668,649 L 671,646 L 672,646 L 673,645 L 674,645 L 675,644 L 687,644 L 688,645 L 689,645 L 690,646 L 691,646 L 694,649 L 694,650 L 695,651 L 695,652 L 696,653 L 696,662 L 695,663 L 694,662 L 693,662 L 692,663 L 675,663 L 674,664 L 668,664 L 667,665 L 664,665 L 663,666 L 661,666 L 660,667 L 658,667 L 657,668 L 656,668 L 655,669 L 654,669 L 652,671 L 651,671 L 644,678 L 644,679 L 642,681 L 642,682 L 641,683 L 641,686 L 640,687 L 640,700 L 641,701 L 641,703 L 642,704 L 642,705 L 643,706 L 643,707 L 644,708 L 644,709 L 650,715 L 651,715 L 652,716 L 653,716 L 654,717 L 655,717 L 656,718 L 658,718 L 659,719 L 662,719 L 663,720 L 676,720 L 677,719 L 680,719 L 681,718 L 683,718 L 684,717 L 685,717 L 687,715 L 688,715 L 694,709 L 694,708 L 695,707 L 696,708 L 696,718 L 720,718 L 720,653 L 719,652 L 719,647 L 718,646 L 718,644 L 717,643 L 717,642 L 715,640 L 715,639 L 713,637 L 713,636 L 710,633 L 709,633 L 707,631 L 706,631 L 705,630 L 704,630 L 703,629 L 702,629 L 701,628 L 700,628 L 699,627 L 696,627 L 695,626 L 689,626 L 688,625 Z" fill="black" stroke="none" /><path d="M 539,625 L 538,626 L 533,626 L 532,627 L 530,627 L 529,628 L 528,628 L 527,629 L 526,629 L 524,631 L 523,631 L 518,636 L 518,637 L 516,639 L 515,638 L 515,627 L 514,628 L 494,628 L 493,627 L 492,628 L 492,718 L 516,718 L 516,659 L 517,658 L 517,656 L 518,655 L 518,654 L 525,647 L 527,647 L 528,646 L 532,646 L 533,645 L 535,645 L 536,646 L 540,646 L 541,647 L 542,647 L 546,651 L 546,652 L 547,653 L 547,654 L 548,655 L 548,660 L 549,661 L 549,717 L 548,718 L 572,718 L 572,657 L 573,656 L 573,655 L 574,654 L 574,653 L 579,648 L 580,648 L 581,647 L 582,647 L 583,646 L 585,646 L 586,645 L 592,645 L 593,646 L 595,646 L 596,647 L 597,647 L 598,648 L 599,648 L 601,650 L 601,651 L 603,653 L 603,655 L 604,656 L 604,718 L 627,718 L 627,646 L 626,645 L 626,643 L 625,642 L 625,640 L 623,638 L 623,637 L 620,634 L 620,633 L 619,633 L 616,630 L 615,630 L 614,629 L 613,629 L 612,628 L 611,628 L 610,627 L 607,627 L 606,626 L 601,626 L 600,625 L 594,625 L 593,626 L 589,626 L 588,627 L 586,627 L 585,628 L 583,628 L 582,629 L 581,629 L 580,630 L 579,630 L 571,638 L 571,639 L 569,641 L 568,640 L 568,639 L 566,637 L 566,636 L 560,630 L 559,630 L 557,628 L 555,628 L 554,627 L 552,627 L 551,626 L 547,626 L 546,625 Z" fill="black" stroke="none" /><path d="M 329,625 L 328,626 L 323,626 L 322,627 L 320,627 L 319,628 L 317,628 L 316,629 L 315,629 L 314,630 L 313,630 L 312,631 L 311,631 L 309,633 L 308,633 L 303,638 L 303,639 L 301,641 L 301,642 L 300,643 L 300,645 L 299,646 L 299,648 L 298,649 L 298,653 L 297,654 L 297,655 L 319,655 L 319,653 L 320,652 L 320,651 L 321,650 L 321,649 L 324,646 L 325,646 L 326,645 L 327,645 L 328,644 L 339,644 L 340,645 L 342,645 L 343,646 L 344,646 L 347,649 L 347,650 L 348,651 L 348,653 L 349,654 L 349,661 L 348,662 L 338,662 L 337,663 L 324,663 L 323,664 L 319,664 L 318,665 L 315,665 L 314,666 L 312,666 L 311,667 L 310,667 L 309,668 L 308,668 L 307,669 L 306,669 L 305,670 L 304,670 L 297,677 L 297,678 L 295,680 L 295,682 L 294,683 L 294,684 L 293,685 L 293,690 L 292,691 L 292,694 L 293,695 L 293,700 L 294,701 L 294,703 L 295,704 L 295,706 L 297,708 L 297,709 L 303,715 L 304,715 L 306,717 L 307,717 L 308,718 L 310,718 L 311,719 L 314,719 L 315,720 L 329,720 L 330,719 L 333,719 L 334,718 L 336,718 L 337,717 L 338,717 L 340,715 L 341,715 L 344,712 L 345,712 L 346,711 L 346,710 L 348,708 L 349,709 L 349,718 L 373,718 L 373,651 L 372,650 L 372,646 L 371,645 L 371,644 L 370,643 L 370,642 L 369,641 L 369,640 L 368,639 L 368,638 L 362,632 L 361,632 L 359,630 L 358,630 L 357,629 L 356,629 L 355,628 L 353,628 L 352,627 L 349,627 L 348,626 L 344,626 L 343,625 Z" fill="black" stroke="none" /><path d="M 235,625 L 234,626 L 230,626 L 229,627 L 226,627 L 225,628 L 224,628 L 223,629 L 221,629 L 220,630 L 219,630 L 217,632 L 216,632 L 213,635 L 212,635 L 208,639 L 208,640 L 205,643 L 205,644 L 204,645 L 204,646 L 203,647 L 203,648 L 202,649 L 202,650 L 201,651 L 201,652 L 200,653 L 200,655 L 199,656 L 199,659 L 198,660 L 198,665 L 197,666 L 197,681 L 198,682 L 198,687 L 199,688 L 199,691 L 200,692 L 200,693 L 201,694 L 201,696 L 202,697 L 202,698 L 203,699 L 203,700 L 205,702 L 205,703 L 207,705 L 207,706 L 212,711 L 213,711 L 215,713 L 216,713 L 218,715 L 219,715 L 220,716 L 221,716 L 222,717 L 224,717 L 225,718 L 227,718 L 228,719 L 231,719 L 232,720 L 251,720 L 252,719 L 255,719 L 256,718 L 258,718 L 259,717 L 260,717 L 261,716 L 262,716 L 263,715 L 264,715 L 265,714 L 266,714 L 269,711 L 270,711 L 273,708 L 273,707 L 276,704 L 276,703 L 277,702 L 277,701 L 278,700 L 278,699 L 279,698 L 279,696 L 280,695 L 280,693 L 281,692 L 281,689 L 259,689 L 259,691 L 258,692 L 258,693 L 253,698 L 252,698 L 251,699 L 249,699 L 248,700 L 235,700 L 234,699 L 233,699 L 232,698 L 231,698 L 225,692 L 225,691 L 224,690 L 224,688 L 223,687 L 223,684 L 222,683 L 222,679 L 223,678 L 283,678 L 283,666 L 282,665 L 282,659 L 281,658 L 281,655 L 280,654 L 280,651 L 279,650 L 279,649 L 278,648 L 278,647 L 277,646 L 277,645 L 276,644 L 276,643 L 275,642 L 275,641 L 271,637 L 271,636 L 270,635 L 269,635 L 265,631 L 264,631 L 263,630 L 262,630 L 261,629 L 260,629 L 259,628 L 257,628 L 256,627 L 254,627 L 253,626 L 249,626 L 248,625 Z" fill="black" stroke="none" /><path d="M 813,604 L 814,605 L 814,626 L 812,628 L 799,628 L 798,627 L 798,646 L 812,646 L 814,648 L 814,700 L 815,701 L 815,703 L 816,704 L 816,705 L 817,706 L 817,707 L 818,708 L 818,709 L 823,714 L 824,714 L 825,715 L 826,715 L 827,716 L 828,716 L 829,717 L 831,717 L 832,718 L 836,718 L 837,719 L 849,719 L 850,718 L 854,718 L 855,717 L 857,717 L 857,699 L 847,699 L 846,698 L 844,698 L 843,697 L 842,697 L 839,694 L 839,693 L 838,692 L 838,690 L 837,689 L 837,647 L 838,646 L 856,646 L 857,647 L 858,646 L 858,628 L 857,627 L 856,628 L 838,628 L 837,627 L 837,604 Z" fill="black" stroke="none" /><path d="M 425,592 L 424,593 L 419,593 L 418,594 L 415,594 L 414,595 L 412,595 L 411,596 L 409,596 L 408,597 L 407,597 L 406,598 L 405,598 L 403,600 L 402,600 L 400,602 L 399,602 L 393,608 L 393,609 L 391,611 L 391,612 L 390,613 L 390,614 L 389,615 L 389,617 L 388,618 L 388,621 L 387,622 L 387,635 L 388,636 L 388,639 L 389,640 L 389,642 L 390,643 L 390,644 L 391,645 L 391,646 L 393,648 L 393,649 L 399,655 L 400,655 L 403,658 L 404,658 L 405,659 L 406,659 L 407,660 L 409,660 L 410,661 L 411,661 L 412,662 L 414,662 L 415,663 L 417,663 L 418,664 L 420,664 L 421,665 L 424,665 L 425,666 L 427,666 L 428,667 L 431,667 L 432,668 L 435,668 L 436,669 L 438,669 L 439,670 L 442,670 L 443,671 L 444,671 L 445,672 L 446,672 L 447,673 L 448,673 L 452,677 L 452,678 L 453,679 L 453,680 L 454,681 L 454,687 L 453,688 L 453,690 L 451,692 L 451,693 L 449,695 L 448,695 L 446,697 L 445,697 L 444,698 L 441,698 L 440,699 L 426,699 L 425,698 L 422,698 L 421,697 L 420,697 L 419,696 L 418,696 L 414,692 L 414,691 L 412,689 L 412,688 L 411,687 L 411,685 L 410,684 L 410,681 L 386,681 L 386,688 L 387,689 L 387,692 L 388,693 L 388,695 L 389,696 L 389,697 L 390,698 L 390,699 L 391,700 L 391,701 L 393,703 L 393,704 L 400,711 L 401,711 L 403,713 L 404,713 L 405,714 L 406,714 L 407,715 L 408,715 L 409,716 L 411,716 L 412,717 L 414,717 L 415,718 L 418,718 L 419,719 L 423,719 L 424,720 L 443,720 L 444,719 L 448,719 L 449,718 L 452,718 L 453,717 L 455,717 L 456,716 L 457,716 L 458,715 L 459,715 L 460,714 L 461,714 L 462,713 L 463,713 L 465,711 L 466,711 L 473,704 L 473,703 L 475,701 L 475,700 L 476,699 L 476,698 L 477,697 L 477,696 L 478,695 L 478,693 L 479,692 L 479,688 L 480,687 L 480,676 L 479,675 L 479,672 L 478,671 L 478,669 L 477,668 L 477,667 L 476,666 L 476,665 L 474,663 L 474,662 L 469,657 L 468,657 L 466,655 L 465,655 L 463,653 L 462,653 L 461,652 L 460,652 L 459,651 L 457,651 L 456,650 L 454,650 L 453,649 L 451,649 L 450,648 L 448,648 L 447,647 L 444,647 L 443,646 L 441,646 L 440,645 L 437,645 L 436,644 L 434,644 L 433,643 L 430,643 L 429,642 L 426,642 L 425,641 L 423,641 L 421,639 L 420,639 L 419,638 L 418,638 L 415,635 L 415,634 L 414,633 L 414,632 L 413,631 L 413,624 L 414,623 L 414,622 L 415,621 L 415,620 L 419,616 L 420,616 L 421,615 L 423,615 L 424,614 L 427,614 L 428,613 L 440,613 L 441,614 L 443,614 L 444,615 L 445,615 L 446,616 L 447,616 L 452,621 L 452,622 L 453,623 L 453,624 L 454,625 L 454,628 L 477,628 L 477,623 L 476,622 L 476,618 L 475,617 L 475,615 L 474,614 L 474,613 L 473,612 L 473,611 L 472,610 L 472,609 L 470,607 L 470,606 L 464,600 L 463,600 L 461,598 L 460,598 L 459,597 L 458,597 L 457,596 L 455,596 L 454,595 L 452,595 L 451,594 L 449,594 L 448,593 L 443,593 L 442,592 Z" fill="black" stroke="none" /><path d="M 131,592 L 130,593 L 126,593 L 125,594 L 122,594 L 121,595 L 119,595 L 118,596 L 116,596 L 115,597 L 114,597 L 113,598 L 112,598 L 110,600 L 109,600 L 106,603 L 105,603 L 102,606 L 102,607 L 99,610 L 99,611 L 97,613 L 97,615 L 96,616 L 96,617 L 95,618 L 95,621 L 94,622 L 94,636 L 95,637 L 95,640 L 96,641 L 96,643 L 97,644 L 97,645 L 98,646 L 98,647 L 101,650 L 101,651 L 105,655 L 106,655 L 108,657 L 109,657 L 110,658 L 111,658 L 112,659 L 113,659 L 114,660 L 115,660 L 116,661 L 117,661 L 118,662 L 120,662 L 121,663 L 123,663 L 124,664 L 127,664 L 128,665 L 130,665 L 131,666 L 134,666 L 135,667 L 138,667 L 139,668 L 142,668 L 143,669 L 145,669 L 146,670 L 148,670 L 149,671 L 151,671 L 152,672 L 153,672 L 154,673 L 155,673 L 159,677 L 159,678 L 160,679 L 160,681 L 161,682 L 161,686 L 160,687 L 160,689 L 159,690 L 159,691 L 154,696 L 153,696 L 152,697 L 151,697 L 150,698 L 147,698 L 146,699 L 132,699 L 131,698 L 129,698 L 128,697 L 127,697 L 125,695 L 124,695 L 121,692 L 121,691 L 119,689 L 119,688 L 118,687 L 118,684 L 117,683 L 117,681 L 92,681 L 92,686 L 93,687 L 93,691 L 94,692 L 94,694 L 95,695 L 95,697 L 96,698 L 96,699 L 97,700 L 97,701 L 99,703 L 99,704 L 106,711 L 107,711 L 109,713 L 110,713 L 111,714 L 112,714 L 113,715 L 114,715 L 115,716 L 117,716 L 118,717 L 120,717 L 121,718 L 124,718 L 125,719 L 128,719 L 129,720 L 151,720 L 152,719 L 156,719 L 157,718 L 160,718 L 161,717 L 162,717 L 163,716 L 165,716 L 166,715 L 167,715 L 168,714 L 169,714 L 171,712 L 172,712 L 181,703 L 181,702 L 183,700 L 183,699 L 184,698 L 184,697 L 185,696 L 185,694 L 186,693 L 186,690 L 187,689 L 187,674 L 186,673 L 186,670 L 185,669 L 185,668 L 184,667 L 184,666 L 183,665 L 183,664 L 181,662 L 181,661 L 177,657 L 176,657 L 174,655 L 173,655 L 171,653 L 170,653 L 169,652 L 168,652 L 167,651 L 165,651 L 164,650 L 162,650 L 161,649 L 159,649 L 158,648 L 156,648 L 155,647 L 152,647 L 151,646 L 149,646 L 148,645 L 145,645 L 144,644 L 141,644 L 140,643 L 138,643 L 137,642 L 134,642 L 133,641 L 131,641 L 130,640 L 129,640 L 128,639 L 127,639 L 125,637 L 124,637 L 122,635 L 122,634 L 121,633 L 121,632 L 120,631 L 120,624 L 121,623 L 121,622 L 122,621 L 122,620 L 125,617 L 126,617 L 127,616 L 128,616 L 129,615 L 130,615 L 131,614 L 134,614 L 135,613 L 146,613 L 147,614 L 150,614 L 151,615 L 152,615 L 153,616 L 154,616 L 160,622 L 160,624 L 161,625 L 161,626 L 162,627 L 162,629 L 184,629 L 185,628 L 185,627 L 184,626 L 184,620 L 183,619 L 183,617 L 182,616 L 182,614 L 181,613 L 181,612 L 180,611 L 180,610 L 179,609 L 179,608 L 177,606 L 177,605 L 172,600 L 171,600 L 169,598 L 168,598 L 167,597 L 166,597 L 165,596 L 164,596 L 163,595 L 161,595 L 160,594 L 157,594 L 156,593 L 152,593 L 151,592 Z" fill="black" stroke="none" /><path d="M 297,243 L 295,245 L 295,246 L 294,247 L 294,249 L 295,250 L 295,251 L 296,252 L 296,253 L 297,254 L 297,255 L 298,256 L 298,257 L 300,259 L 300,260 L 301,261 L 301,262 L 302,263 L 302,264 L 303,265 L 303,266 L 304,267 L 304,268 L 306,270 L 306,271 L 307,272 L 307,273 L 308,274 L 308,275 L 309,276 L 309,277 L 310,278 L 310,279 L 312,281 L 312,282 L 313,283 L 313,284 L 314,285 L 314,286 L 315,287 L 315,288 L 317,290 L 317,291 L 318,292 L 318,293 L 319,294 L 319,295 L 320,296 L 320,297 L 322,299 L 322,300 L 323,301 L 323,302 L 324,303 L 324,304 L 325,305 L 325,306 L 326,307 L 326,308 L 328,310 L 328,311 L 329,312 L 329,313 L 330,314 L 330,315 L 331,316 L 331,317 L 332,318 L 332,319 L 334,321 L 334,322 L 335,323 L 335,324 L 336,325 L 336,326 L 337,327 L 337,328 L 338,329 L 338,330 L 340,332 L 340,333 L 341,334 L 341,335 L 342,336 L 342,337 L 343,338 L 343,339 L 345,341 L 345,342 L 346,343 L 346,344 L 347,345 L 347,346 L 348,347 L 348,348 L 349,349 L 349,350 L 351,352 L 351,353 L 352,354 L 352,355 L 353,356 L 353,357 L 354,358 L 354,359 L 355,360 L 355,361 L 357,363 L 357,364 L 358,365 L 358,366 L 359,367 L 359,368 L 360,369 L 360,370 L 362,372 L 362,373 L 363,374 L 363,375 L 364,376 L 364,377 L 365,378 L 365,379 L 366,380 L 366,381 L 368,383 L 368,384 L 369,385 L 369,386 L 370,387 L 370,388 L 371,389 L 371,390 L 373,392 L 373,393 L 374,394 L 374,395 L 375,396 L 375,397 L 376,398 L 376,399 L 377,400 L 377,401 L 379,403 L 379,404 L 380,405 L 380,406 L 381,407 L 381,408 L 382,409 L 382,410 L 383,411 L 383,412 L 385,414 L 385,415 L 386,416 L 386,417 L 387,418 L 387,419 L 388,420 L 388,421 L 389,422 L 389,423 L 391,425 L 391,426 L 392,427 L 392,428 L 393,429 L 393,430 L 394,431 L 394,432 L 396,434 L 396,435 L 397,436 L 397,437 L 398,438 L 398,439 L 399,440 L 399,441 L 401,443 L 401,444 L 402,445 L 402,446 L 403,447 L 403,448 L 404,449 L 404,450 L 405,451 L 405,452 L 407,454 L 407,455 L 408,456 L 408,457 L 409,458 L 409,459 L 410,460 L 410,461 L 411,462 L 411,463 L 413,465 L 413,466 L 414,467 L 414,468 L 415,469 L 415,470 L 416,471 L 416,472 L 418,474 L 418,475 L 419,476 L 419,477 L 420,478 L 420,479 L 421,480 L 421,481 L 422,482 L 422,483 L 424,485 L 424,486 L 425,487 L 425,488 L 426,489 L 426,490 L 427,491 L 427,492 L 428,493 L 428,494 L 430,496 L 430,497 L 431,498 L 431,499 L 432,500 L 432,501 L 433,502 L 433,503 L 434,504 L 434,505 L 436,507 L 436,508 L 437,509 L 437,510 L 439,512 L 439,513 L 440,514 L 440,515 L 441,516 L 441,517 L 442,518 L 442,519 L 443,520 L 443,521 L 445,523 L 445,524 L 446,525 L 446,526 L 447,527 L 447,528 L 448,529 L 448,530 L 449,531 L 449,532 L 453,536 L 456,536 L 457,537 L 462,537 L 463,538 L 564,538 L 565,537 L 570,537 L 571,536 L 572,536 L 573,535 L 574,535 L 575,534 L 575,533 L 577,531 L 577,530 L 578,529 L 578,528 L 580,526 L 580,525 L 581,524 L 581,523 L 582,522 L 582,521 L 583,520 L 583,519 L 584,518 L 584,517 L 586,515 L 586,514 L 587,513 L 587,512 L 588,511 L 588,510 L 590,508 L 590,507 L 591,506 L 591,505 L 592,504 L 592,503 L 593,502 L 593,501 L 595,499 L 595,498 L 596,497 L 596,496 L 597,495 L 597,494 L 598,493 L 598,492 L 600,490 L 600,489 L 601,488 L 601,487 L 602,486 L 602,485 L 603,484 L 603,483 L 605,481 L 605,480 L 606,479 L 606,478 L 607,477 L 607,476 L 608,475 L 608,474 L 610,472 L 610,471 L 611,470 L 611,469 L 612,468 L 612,467 L 613,466 L 613,465 L 615,463 L 615,462 L 616,461 L 616,460 L 617,459 L 617,458 L 618,457 L 618,456 L 620,454 L 620,453 L 621,452 L 621,451 L 622,450 L 622,449 L 624,447 L 624,446 L 625,445 L 625,444 L 626,443 L 626,442 L 627,441 L 627,440 L 629,438 L 629,437 L 630,436 L 630,435 L 631,434 L 631,433 L 632,432 L 632,431 L 634,429 L 634,428 L 635,427 L 635,426 L 636,425 L 636,424 L 637,423 L 637,422 L 639,420 L 639,419 L 640,418 L 640,417 L 641,416 L 641,415 L 642,414 L 642,413 L 644,411 L 644,410 L 645,409 L 645,408 L 646,407 L 646,406 L 647,405 L 647,404 L 649,402 L 649,401 L 650,400 L 650,399 L 651,398 L 651,397 L 652,396 L 652,395 L 653,394 L 653,393 L 655,391 L 655,390 L 656,389 L 656,388 L 657,387 L 657,386 L 658,385 L 658,384 L 660,382 L 660,381 L 661,380 L 661,379 L 662,378 L 662,377 L 663,376 L 663,375 L 665,373 L 665,372 L 666,371 L 666,370 L 667,369 L 667,368 L 668,367 L 668,366 L 670,364 L 670,363 L 671,362 L 671,361 L 672,360 L 672,359 L 673,358 L 673,357 L 675,355 L 675,354 L 676,353 L 676,352 L 677,351 L 677,350 L 678,349 L 678,348 L 680,346 L 680,345 L 681,344 L 681,343 L 682,342 L 682,341 L 683,340 L 683,339 L 685,337 L 685,336 L 686,335 L 686,334 L 687,333 L 687,332 L 688,331 L 688,330 L 690,328 L 690,327 L 691,326 L 691,325 L 692,324 L 692,323 L 693,322 L 693,321 L 695,319 L 695,318 L 696,317 L 696,316 L 697,315 L 697,314 L 698,313 L 698,312 L 700,310 L 700,309 L 701,308 L 701,307 L 702,306 L 702,305 L 703,304 L 703,303 L 705,301 L 705,300 L 706,299 L 706,298 L 707,297 L 707,296 L 708,295 L 708,294 L 710,292 L 710,291 L 711,290 L 711,289 L 712,288 L 712,287 L 713,286 L 713,285 L 714,284 L 714,283 L 716,281 L 716,280 L 717,279 L 717,278 L 718,277 L 718,276 L 720,274 L 720,273 L 721,272 L 721,271 L 722,270 L 722,269 L 723,268 L 723,267 L 724,266 L 724,265 L 726,263 L 726,262 L 727,261 L 727,260 L 728,259 L 728,258 L 729,257 L 729,256 L 730,255 L 730,254 L 732,252 L 732,251 L 733,250 L 733,245 L 732,244 L 731,244 L 730,243 L 508,243 L 507,244 L 505,244 L 504,245 L 503,245 L 501,247 L 501,248 L 500,249 L 500,250 L 498,252 L 498,253 L 497,254 L 497,255 L 496,256 L 496,257 L 494,259 L 494,260 L 493,261 L 493,262 L 492,263 L 492,264 L 490,266 L 490,267 L 489,268 L 489,269 L 488,270 L 488,271 L 487,272 L 487,273 L 485,275 L 485,276 L 484,277 L 484,278 L 483,279 L 483,280 L 482,281 L 482,282 L 480,284 L 480,285 L 479,286 L 479,287 L 477,289 L 477,290 L 476,291 L 476,292 L 475,293 L 475,294 L 474,295 L 474,296 L 472,298 L 472,299 L 471,300 L 471,301 L 470,302 L 470,303 L 469,304 L 469,305 L 468,306 L 468,307 L 470,309 L 517,309 L 518,308 L 576,308 L 577,307 L 627,307 L 628,306 L 629,307 L 629,308 L 626,311 L 626,312 L 624,314 L 624,315 L 622,317 L 622,318 L 620,320 L 620,321 L 618,323 L 618,324 L 616,326 L 616,327 L 613,330 L 613,331 L 611,333 L 611,334 L 609,336 L 609,337 L 607,339 L 607,340 L 604,343 L 598,343 L 597,344 L 554,344 L 553,345 L 528,345 L 527,346 L 527,347 L 526,348 L 526,349 L 524,351 L 524,352 L 523,353 L 523,354 L 522,355 L 522,356 L 521,357 L 521,358 L 519,360 L 519,361 L 518,362 L 518,363 L 517,364 L 517,365 L 516,366 L 516,367 L 514,369 L 514,370 L 513,371 L 513,372 L 512,373 L 512,374 L 511,375 L 511,376 L 509,378 L 509,379 L 508,380 L 508,381 L 507,382 L 507,383 L 505,385 L 505,386 L 504,387 L 504,388 L 503,389 L 503,390 L 502,391 L 502,392 L 500,394 L 500,395 L 499,396 L 499,397 L 498,398 L 498,399 L 497,400 L 497,401 L 495,403 L 495,404 L 494,405 L 494,406 L 493,407 L 493,408 L 491,410 L 491,411 L 490,412 L 490,413 L 489,414 L 489,415 L 488,416 L 488,417 L 486,419 L 486,420 L 485,421 L 485,422 L 484,423 L 484,424 L 483,425 L 483,426 L 481,428 L 481,429 L 480,430 L 480,431 L 479,432 L 479,433 L 477,435 L 477,436 L 476,437 L 476,438 L 475,439 L 475,440 L 474,441 L 474,442 L 473,443 L 472,442 L 472,441 L 471,440 L 471,439 L 469,437 L 469,436 L 468,435 L 468,434 L 467,433 L 467,432 L 466,431 L 466,430 L 465,429 L 465,428 L 463,426 L 463,425 L 462,424 L 462,423 L 461,422 L 461,421 L 460,420 L 460,419 L 459,418 L 459,417 L 457,415 L 457,414 L 456,413 L 456,412 L 455,411 L 455,410 L 454,409 L 454,408 L 453,407 L 453,406 L 451,404 L 451,403 L 450,402 L 450,401 L 449,400 L 449,399 L 448,398 L 448,397 L 447,396 L 447,395 L 446,394 L 446,393 L 444,391 L 444,390 L 443,389 L 443,388 L 442,387 L 442,386 L 441,385 L 441,384 L 440,383 L 440,382 L 438,380 L 438,379 L 437,378 L 437,377 L 436,376 L 436,375 L 435,374 L 435,373 L 434,372 L 434,371 L 432,369 L 432,368 L 431,367 L 431,366 L 430,365 L 430,364 L 429,363 L 429,362 L 428,361 L 428,360 L 426,358 L 426,357 L 425,356 L 425,355 L 424,354 L 424,353 L 423,352 L 423,351 L 422,350 L 422,349 L 420,347 L 420,346 L 419,345 L 419,344 L 418,343 L 418,342 L 417,341 L 417,340 L 415,338 L 415,337 L 414,336 L 414,335 L 413,334 L 413,333 L 412,332 L 412,331 L 411,330 L 411,329 L 409,327 L 409,326 L 408,325 L 408,324 L 407,323 L 407,322 L 406,321 L 406,320 L 405,319 L 405,318 L 404,317 L 404,316 L 402,314 L 402,313 L 401,312 L 401,311 L 400,310 L 400,309 L 399,308 L 399,307 L 398,306 L 398,305 L 396,303 L 396,302 L 395,301 L 395,300 L 394,299 L 394,298 L 393,297 L 393,296 L 392,295 L 392,294 L 391,293 L 391,292 L 389,290 L 389,289 L 388,288 L 388,287 L 387,286 L 387,285 L 386,284 L 386,283 L 384,281 L 384,280 L 383,279 L 383,278 L 382,277 L 382,276 L 381,275 L 381,274 L 380,273 L 380,272 L 379,271 L 379,270 L 377,268 L 377,267 L 376,266 L 376,265 L 375,264 L 375,263 L 374,262 L 374,261 L 373,260 L 373,259 L 371,257 L 371,256 L 370,255 L 370,254 L 369,253 L 369,252 L 368,251 L 368,250 L 366,248 L 366,247 L 365,246 L 364,246 L 363,245 L 361,245 L 360,244 L 355,244 L 354,243 Z" fill="black" stroke="none" /></svg>