<?xml version="1.0" standalone="no"?>
<!DOCTYPE svg PUBLIC "-//W3C//DTD SVG 20010904//EN"
 "http://www.w3.org/TR/2001/REC-SVG-20010904/DTD/svg10.dtd">
<svg version="1.0" xmlns="http://www.w3.org/2000/svg"
 width="500.000000pt" height="500.000000pt" viewBox="0 0 500.000000 500.000000"
 preserveAspectRatio="xMidYMid meet">

<g transform="translate(0.000000,500.000000) scale(0.100000,-0.100000)"
fill="#000000" stroke="none">
<path d="M1589 3015 c-78 -43 -50 -153 45 -170 42 -8 69 -30 64 -52 -5 -27
-54 -30 -68 -4 -7 15 -21 21 -45 21 -41 0 -49 -10 -33 -45 16 -36 57 -55 118
-55 44 0 56 5 81 29 21 22 29 39 29 66 0 45 -28 73 -100 98 -43 15 -51 22 -48
40 4 27 45 36 54 13 4 -11 19 -16 51 -16 37 0 44 3 39 16 -3 9 -6 20 -6 25 0
5 -15 18 -32 29 -39 23 -111 26 -149 5z"/>
<path d="M1820 2870 l0 -160 100 0 100 0 0 30 0 30 -60 0 -60 0 0 35 0 35 50
0 c49 0 50 1 50 30 0 29 -1 30 -50 30 l-50 0 0 35 0 35 60 0 60 0 0 30 0 30
-100 0 -100 0 0 -160z"/>
<path d="M2142 3003 c-26 -65 -102 -277 -102 -285 0 -4 18 -8 40 -8 34 0 41 4
46 24 5 21 13 25 53 28 67 4 80 0 87 -28 5 -21 12 -24 49 -24 l42 0 -57 158
-57 157 -45 3 c-41 3 -46 1 -56 -25z m87 -160 c1 -8 -12 -13 -34 -13 -19 0
-35 1 -35 3 0 2 8 26 17 52 l16 50 18 -40 c10 -22 18 -46 18 -52z"/>
<path d="M2030 2570 c0 -5 9 -10 20 -10 18 0 20 -7 20 -64 0 -36 5 -68 10 -71
6 -4 10 20 10 64 0 69 1 71 25 71 14 0 25 5 25 10 0 6 -25 10 -55 10 -30 0
-55 -4 -55 -10z"/>
<path d="M2170 2500 l0 -80 45 0 c25 0 45 5 45 10 0 6 -16 10 -35 10 -32 0
-35 2 -35 29 0 26 4 30 33 34 l32 4 -32 1 c-28 2 -33 6 -33 27 0 22 4 25 35
25 19 0 35 5 35 10 0 6 -20 10 -45 10 l-45 0 0 -80z"/>
<path d="M2310 2560 c-31 -31 -27 -93 6 -119 33 -26 56 -27 77 -3 25 28 20 33
-13 14 -23 -13 -34 -14 -47 -6 -22 13 -30 79 -12 100 14 17 51 18 67 2 6 -6
15 -8 19 -4 11 11 -27 36 -54 36 -13 0 -32 -9 -43 -20z"/>
<path d="M2440 2506 c0 -41 5 -78 10 -81 6 -4 10 10 10 34 l0 41 40 0 40 0 0
-41 c0 -24 4 -38 10 -34 6 3 10 40 10 81 0 43 -4 74 -10 74 -5 0 -10 -13 -10
-29 0 -22 -5 -30 -22 -33 -42 -7 -58 2 -58 33 0 16 -4 29 -10 29 -6 0 -10 -31
-10 -74z"/>
<path d="M2607 2573 c-11 -10 -8 -141 3 -148 6 -4 10 19 10 62 l0 68 43 -67
c23 -38 45 -68 49 -68 5 0 8 36 8 80 0 91 -17 109 -22 23 l-3 -58 -35 58 c-34
57 -41 63 -53 50z"/>
<path d="M2780 2560 c-31 -31 -27 -93 7 -120 52 -40 103 -7 103 66 0 33 -5 46
-22 58 -31 22 -64 20 -88 -4z m89 -30 c20 -59 -16 -104 -65 -82 -19 9 -24 19
-24 50 0 45 14 62 51 62 21 0 29 -7 38 -30z"/>
<path d="M2937 2569 c-4 -9 -7 -45 -5 -80 l3 -64 43 -3 c25 -2 42 1 42 7 0 6
-16 11 -35 11 l-34 0 -3 73 c-2 44 -6 66 -11 56z"/>
<path d="M3065 2555 c-16 -15 -25 -36 -25 -55 0 -35 38 -80 68 -80 32 0 62 32
68 72 5 30 2 41 -19 62 -33 33 -61 33 -92 1z m86 -16 c14 -27 3 -85 -17 -93
-56 -21 -95 37 -64 95 15 27 66 26 81 -2z"/>
<path d="M3230 2560 c-24 -24 -27 -91 -5 -114 22 -22 52 -29 74 -17 14 8 21 8
24 -2 3 -6 6 9 6 36 1 46 0 47 -30 47 -17 0 -28 -4 -24 -10 3 -5 15 -10 26
-10 22 0 23 -4 9 -31 -12 -21 -50 -25 -68 -7 -16 16 -16 80 0 96 7 7 24 12 38
12 14 0 31 -5 38 -12 7 -7 12 -8 12 -2 0 36 -68 46 -100 14z"/>
<path d="M3377 2573 c-11 -10 -8 -143 3 -143 6 0 10 32 10 75 0 75 -1 81 -13
68z"/>
<path d="M3440 2500 l0 -80 45 0 c25 0 45 5 45 10 0 6 -16 10 -35 10 -32 0
-35 2 -35 29 0 26 4 30 33 34 l32 4 -32 1 c-28 2 -33 6 -33 27 0 22 4 25 35
25 19 0 35 5 35 10 0 6 -20 10 -45 10 l-45 0 0 -80z"/>
<path d="M3572 2568 c-28 -28 -10 -61 41 -73 18 -5 27 -14 27 -26 0 -25 -25
-34 -56 -21 -15 8 -24 8 -24 2 0 -6 12 -15 27 -21 39 -14 73 3 73 37 0 21 -8
29 -40 41 -28 11 -40 22 -40 36 0 16 6 19 35 15 22 -2 34 0 32 6 -5 16 -60 19
-75 4z"/>
</g>
</svg>
