<svg xmlns="http://www.w3.org/2000/svg" width="125" height="46" fill="none">
  <path d="M 40.69 19.245 L 43.891 19.245 L 43.891 28.774 L 40.69 28.774 L 40.69 19.245 Z M 34.947 21.49 L 37.648 21.49 L 37.648 28.77 L 34.474 28.77 L 34.474 27.455 C 33.95 28.275 32.244 28.961 30.46 28.961 C 26.734 28.961 24.058 26.959 24.058 24.177 C 24.058 21.394 27.128 19.24 30.958 19.24 L 34.42 19.24 L 34.42 21.107 C 34.42 21.318 34.63 21.489 34.945 21.489 L 34.947 21.49 Z M 34.42 21.966 C 34.42 21.741 34.21 21.585 33.896 21.585 L 31.01 21.585 C 28.833 21.585 27.468 22.595 27.468 24.139 C 27.468 25.569 28.727 26.635 30.931 26.635 C 32.821 26.635 34.421 25.667 34.421 24.12 L 34.421 21.966 L 34.42 21.966 Z M 15.426 22.366 L 15.426 28.77 L 18.626 28.77 L 18.626 21.89 C 18.626 21.663 18.836 21.51 19.151 21.51 L 23.531 21.51 L 23.531 19.241 L 19.334 19.241 C 16.526 19.241 15.426 20.29 15.426 22.368 L 15.426 22.366 Z M 13.589 23.834 C 13.589 26.617 10.519 28.77 6.689 28.77 L 3.226 28.77 L 3.226 26.903 C 3.226 26.674 3.016 26.525 2.702 26.525 L 0 26.525 L 0 16 L 3.226 16 L 3.226 20.46 C 3.803 19.601 5.404 19.05 7.189 19.05 C 10.914 19.05 13.591 21.052 13.591 23.834 L 13.589 23.834 Z M 10.178 23.873 C 10.178 22.443 8.919 21.377 6.715 21.377 C 4.826 21.377 3.225 22.348 3.225 23.893 L 3.225 26.046 C 3.225 26.274 3.435 26.427 3.749 26.427 L 6.636 26.427 C 8.814 26.427 10.178 25.42 10.178 23.873 Z M 55.46 19.245 L 50.843 19.245 C 48.01 19.245 46.907 20.29 46.907 22.368 L 46.907 28.774 L 50.108 28.774 L 50.108 21.892 C 50.108 21.663 50.318 21.511 50.633 21.511 L 55.643 21.511 C 55.958 21.511 56.168 21.663 56.168 21.892 L 56.168 28.774 L 59.368 28.774 L 59.368 22.368 C 59.368 20.462 58.504 19.245 55.46 19.245 Z M 103.211 23.054 L 101.008 22.768 C 99.802 22.614 99.33 22.329 99.33 21.813 C 99.33 21.299 100.064 20.823 101.586 20.823 C 103.213 20.823 104.105 21.416 104.157 22.274 L 107.358 22.274 C 107.121 20.156 104.996 19.012 101.611 19.012 C 98.227 19.012 96.102 20.251 96.102 22.061 C 96.102 23.873 97.99 24.523 100.351 24.809 L 102.423 25.056 C 103.735 25.205 104.47 25.569 104.47 26.161 C 104.47 26.828 103.394 27.189 101.899 27.189 C 100.22 27.189 99.118 26.56 99.012 25.607 L 95.68 25.607 C 95.915 27.932 98.592 29 101.897 29 C 105.202 29 107.669 27.933 107.669 25.97 C 107.669 24.217 105.964 23.379 103.208 23.054 L 103.211 23.054 Z M 90.486 26.122 C 90.486 26.35 90.276 26.502 89.961 26.502 L 85.213 26.502 C 84.899 26.502 84.689 26.35 84.689 26.122 L 84.689 19.245 L 81.487 19.245 L 81.487 25.628 C 81.487 27.532 82.353 28.774 85.396 28.774 L 89.751 28.774 C 92.585 28.774 93.687 27.724 93.687 25.646 L 93.687 19.241 L 90.486 19.241 L 90.486 26.122 Z M 71.806 22.366 L 71.806 28.77 L 75.008 28.77 L 75.008 21.89 C 75.008 21.663 75.218 21.51 75.532 21.51 L 79.651 21.51 L 79.651 19.241 L 75.715 19.241 C 72.907 19.241 71.807 20.29 71.807 22.368 L 71.807 22.366 L 71.806 22.366 Z M 66.455 16 L 63.254 16 L 63.254 19.24 L 60.84 19.24 L 60.84 21.412 L 63.253 21.412 L 63.253 25.854 C 63.253 28.027 64.643 28.77 67.267 28.77 L 69.603 28.77 L 69.603 26.598 L 68.291 26.598 C 66.978 26.598 66.454 26.178 66.454 25.283 L 66.454 21.416 L 70.021 21.416 L 70.021 19.24 L 66.454 19.24 L 66.454 16.001 L 66.455 16 Z M 40.534 18.231 L 44.024 18.231 L 44.024 16 L 40.534 16 L 40.534 18.231 Z M 114.433 19.241 L 114.433 16.001 L 111.232 16.001 L 111.232 19.245 L 108.819 19.245 L 108.819 21.416 L 111.232 21.416 L 111.232 25.856 C 111.232 28.029 112.621 28.774 115.246 28.774 L 117.582 28.774 L 117.582 26.603 L 116.269 26.603 C 114.957 26.603 114.433 26.18 114.433 25.285 L 114.433 21.416 L 118 21.416 L 118 19.245 L 114.433 19.245 L 114.433 19.241 Z" style="fill: rgb(255, 255, 255);"></path>
</svg>