<svg class="h-7" viewBox="0 0 100 40" fill="none" xmlns="http://www.w3.org/2000/svg"><g clip-path="url(#clip0_922_64)"><path d="M100 5.36754V34.6002C100 39.2377 99.9479 39.4462 99.3734 39.4462H92.2697C91.6952 39.4462 91.5908 39.2377 91.5908 34.6002V5.36754C91.5908 0.729916 91.6952 0.521484 92.2697 0.521484H99.3734C99.9479 0.521484 100 0.729916 100 5.36754Z" fill="white"></path><path d="M80.0835 22.4584V21.3641C80.0835 18.7587 78.8821 17.7165 76.7926 17.7165C74.7557 17.7165 73.6587 18.8108 73.3454 20.7388C73.241 21.312 73.2931 21.781 72.9798 21.781H65.9284C65.5105 21.781 65.5105 21.6767 65.5105 21.312C65.5105 18.5503 68.1222 12.8184 77.2105 12.8184C83.6351 12.8184 88.2316 15.3717 88.2316 22.4584V32.8801C88.2316 35.2769 89.5374 38.6641 89.5374 39.1329C89.5374 39.3413 89.3807 39.4456 89.2241 39.4456H81.3892C81.0236 39.4456 80.9713 39.2371 80.7101 37.9345L80.5011 36.9445C80.3445 36.1628 80.2401 35.9022 79.9266 35.9022C79.5087 35.9022 79.2477 36.8403 78.0986 37.9345C76.8449 39.0808 75.3303 39.8625 72.7186 39.8625C68.4878 39.8625 64.6747 37.4654 64.6747 32.2547C64.6747 26.4186 69.219 23.9173 75.9571 23.6568C79.4566 23.5004 80.0835 23.8652 80.0835 22.4584ZM80.0835 30.014V28.972C80.0835 27.9297 79.8222 27.617 78.9342 27.6691L77.0016 27.7733C74.5468 27.9297 73.0841 29.1804 73.0841 31.5251C73.0841 33.8179 74.3378 34.9644 76.166 34.9644C78.203 34.9644 80.0835 33.0885 80.0835 30.014Z" fill="white"></path><path d="M50.459 19.6448C50.459 18.6547 50.0411 18.5505 48.1085 18.5505H47.1684C46.8028 18.5505 46.7505 18.2899 46.7505 16.1535V15.7888C46.7505 13.6523 46.8028 13.4439 47.1684 13.4439H48.2652C50.1977 13.4439 50.459 13.2876 50.459 12.3496V9.11893C50.459 3.02226 53.5406 0 59.4952 0C61.8457 0 63.4647 0.364754 63.7259 0.521081C63.8305 0.625296 63.8305 0.781621 63.8305 2.70962V3.38702C63.8305 5.36713 63.8305 5.83611 63.6737 5.83611C63.517 5.83611 62.7858 5.36713 61.5321 5.36713C59.8608 5.36713 58.8161 6.20087 58.8161 9.11893V12.3496C58.8161 13.2876 59.1817 13.4439 61.5321 13.4439H63.8826C64.3528 13.4439 64.3528 13.6523 64.3528 15.7888V16.1535C64.3528 18.2899 64.3005 18.5505 63.9349 18.5505H61.5321C59.1817 18.5505 58.8161 18.6547 58.8161 19.6448V34.5998C58.8161 39.2375 58.6594 39.4459 58.2415 39.4459H50.9812C50.5633 39.4459 50.459 39.2375 50.459 34.5998V19.6448Z" fill="white"></path><path fill-rule="evenodd" clip-rule="evenodd" d="M25.1309 0.615234C25.8062 0.615234 26.3472 1.16232 26.4117 1.83204C26.9874 7.80586 31.7582 12.5599 37.753 13.1336C38.4252 13.198 38.9741 13.7372 38.9741 14.41V25.6587C38.9741 26.3313 38.4252 26.8705 37.753 26.935C31.7582 27.5087 26.9874 32.2628 26.4117 38.2365C26.3472 38.9062 25.8062 39.4534 25.1309 39.4534H13.8429C13.1678 39.4534 12.6267 38.9062 12.5621 38.2365C11.9864 32.2628 7.2156 27.5087 1.22083 26.935C0.548755 26.8705 -0.000244141 26.3313 -0.000244141 25.6587V14.41C-0.000244141 13.7372 0.548757 13.198 1.22083 13.1336C7.2156 12.5599 11.9864 7.80586 12.5621 1.83204C12.6267 1.16232 13.1678 0.615234 13.8429 0.615234H25.1309ZM7.82526 20.0014C7.82526 26.4635 13.0762 31.7019 19.5536 31.7019C26.0309 31.7019 31.2821 26.4635 31.2821 20.0014C31.2821 13.5394 26.0309 8.30088 19.5536 8.30088C13.0762 8.30088 7.82526 13.5394 7.82526 20.0014Z" fill="white"></path></g><defs><clipPath id="clip0_922_64"><rect width="100" height="40" fill="white"></rect></clipPath></defs></svg>