<svg xmlns="http://www.w3.org/2000/svg" viewBox="0 0 377 81" fill="none" height="400" width="4">
  <path d="M 103.606 26.981 C 120.649 26.981 133.05 41.03 132.171 66.564 L 90.669 66.564 C 92.219 73.66 96.358 79.757 104.648 79.757 C 109.29 79.757 113.529 78.238 116.73 73.493 L 131.052 73.493 L 130.811 75.012 C 128.332 88.015 115.849 95.23 104.648 95.23 C 86.886 95.23 74.966 80.992 74.966 61.153 C 74.966 41.315 86.886 26.981 103.606 26.981 Z M 223.704 26.981 C 240.826 26.981 253.149 41.03 252.347 66.564 L 210.834 66.564 C 212.364 73.66 216.477 79.757 224.827 79.757 C 229.465 79.757 233.706 78.238 236.827 73.493 L 251.229 73.493 L 250.988 75.012 C 248.509 88.015 236.025 95.23 224.827 95.23 C 207.061 95.23 195.14 80.992 195.14 61.153 C 195.14 41.315 207.061 26.981 223.704 26.981 Z M 162.657 26.601 C 175.298 26.601 186.421 32.013 189.621 45.302 L 189.942 46.727 L 174.18 46.727 C 170.817 41.79 166.336 41.125 162.657 41.125 C 159.216 41.125 153.776 42.169 153.776 46.156 C 153.776 49.857 157.376 51.092 160.497 51.565 L 169.618 52.705 C 184.099 54.223 190.5 60.963 190.5 74.158 C 190.5 89.344 177.78 95.039 165.218 95.039 C 152.653 95.039 139.611 88.395 137.134 74.916 L 136.892 73.493 L 153.055 73.493 C 155.293 81.084 165.612 80.518 165.218 80.517 C 171.297 80.517 175.057 78.334 175.058 74.822 C 175.058 72.544 174.418 69.886 168.178 68.936 L 158.655 67.797 C 146.094 66.753 138.493 58.876 138.493 47.106 C 138.493 32.678 150.015 26.602 162.657 26.602 L 162.657 26.601 Z M 377.085 93.33 L 361.563 93.33 L 362.363 84.124 C 360.204 89.63 353.24 95.038 344.522 95.038 C 330.12 95.038 318.44 81.94 318.44 61.249 C 318.44 40.555 329.959 27.456 344.522 27.456 C 352.442 27.456 357.323 30.493 361.642 35.714 L 361.642 0.214 L 377.085 0.214 L 377.085 93.33 Z M 47.92 0.214 C 63.12 0.214 72.163 10.938 72.163 25.179 C 72.163 39.416 63.122 50.142 47.92 50.143 L 40.239 50.143 L 78.404 93.329 L 51.441 93.329 L 22.397 60.585 C 20.317 58.306 19.357 55.648 19.357 53.37 C 19.357 50.143 21.276 47.297 24.957 46.063 L 39.918 41.317 C 45.598 39.512 49.52 34.292 49.523 27.457 C 49.523 19.105 43.761 14.263 36.638 14.263 L -0.087 14.263 L -0.087 0.214 L 47.92 0.214 Z M 289.873 27.076 C 303.475 27.076 312.998 38.846 312.998 55.647 L 312.998 93.329 L 297.475 93.329 L 297.475 58.779 C 297.475 49.288 293.234 43.591 285.715 43.591 C 278.194 43.591 273.311 49.476 273.311 58.778 L 273.311 93.329 L 258.109 93.329 L 258.109 28.405 L 273.552 28.405 L 272.833 38.751 C 275.074 33.531 282.031 27.076 289.873 27.076 Z M 348.202 43.592 C 338.842 43.592 333.881 51.851 333.881 61.249 C 333.881 71.309 339.48 78.999 348.202 78.999 C 356.602 78.999 362.043 71.215 362.043 61.249 C 362.043 51.282 356.761 43.592 348.202 43.592 Z M 103.606 41.694 C 96.044 41.694 91.724 47.053 90.381 54.225 L 116.56 54.225 C 116.386 53.326 116.175 52.438 115.929 51.565 C 114.008 45.112 109.527 41.694 103.606 41.694 Z M 223.704 41.694 C 216.207 41.694 211.897 47.053 210.559 54.225 L 236.736 54.225 C 236.562 53.326 236.353 52.438 236.106 51.565 C 234.187 45.112 229.705 41.694 223.704 41.694 Z" style="fill: rgba(255, 255, 255, 0.9);"></path>
</svg>