<svg xmlns="http://www.w3.org/2000/svg" width="94" height="42" fill="none">
  <path d="M 86.5 24.664 L 86.5 25.745 C 85.454 25.97 84.013 25.947 83.591 25.062 L 83.32 24.254 C 82.13 25.773 79.529 26.279 77.28 25.957 C 74.768 25.599 73.467 24.055 74.1 22.23 C 74.897 19.937 79.19 19.963 81.678 19.429 C 82.776 19.194 83.492 18.881 83.341 17.933 C 83.128 16.6 80.622 16.579 79.257 16.72 C 77.697 16.882 76.971 17.512 76.928 18.668 L 76.86 18.73 L 74.646 18.73 C 74.736 16.693 76.672 15.561 79.308 15.338 C 82.173 15.098 85.21 15.694 85.434 18.149 C 85.595 19.906 85.302 21.795 85.43 23.563 C 85.446 23.768 85.484 24.13 85.575 24.315 C 85.75 24.673 86.023 24.687 86.501 24.663 L 86.5 24.663 L 86.5 24.664 Z M 83.346 20.223 C 82.72 20.561 81.944 20.695 81.199 20.833 C 79.206 21.199 75.502 21.39 76.31 23.611 C 76.902 25.24 80.865 24.727 82.202 23.881 C 82.741 23.54 83.346 22.744 83.346 22.219 L 83.346 20.223 Z M 6.31 15 C 6.427 15.072 6.595 15.026 6.742 15.037 C 9.263 15.244 11.367 16.323 11.601 18.284 L 9.26 18.284 C 9.036 17.418 8.365 16.773 7.175 16.548 C 5.842 16.296 3.119 16.349 2.905 17.671 C 2.755 18.6 3.567 18.953 4.63 19.196 C 7.264 19.801 11.845 19.859 12.154 22.521 C 12.539 25.839 7.326 26.538 3.917 25.837 C 1.657 25.374 0.024 24.092 0 22.313 L 2.34 22.313 C 2.405 23.499 3.392 24.278 4.935 24.533 C 6.586 24.807 9.643 24.71 9.822 23.079 C 9.926 22.134 9.163 21.65 8.029 21.369 C 5.586 20.767 0.887 20.8 0.566 18.26 C 0.296 16.118 2.67 15.123 5.241 15 L 6.309 15 L 6.31 15 Z M 46.456 25.746 L 44.268 25.746 L 44.268 18.414 C 44.268 18.263 44.106 17.816 44.022 17.662 C 43.262 16.25 40.25 16.533 39.077 17.518 C 38.734 17.806 38.213 18.561 38.213 18.937 L 38.213 25.746 L 36.025 25.746 L 36.025 18.452 C 36.025 18.247 35.847 17.783 35.729 17.587 C 34.99 16.362 32.371 16.534 31.167 17.277 C 30.635 17.606 29.969 18.422 29.969 18.937 L 29.969 25.746 L 27.781 25.746 L 27.781 15.597 L 29.969 15.597 L 29.969 16.829 C 30.674 16.175 31.549 15.644 32.675 15.436 C 33.828 15.222 35.385 15.262 36.397 15.754 C 37.076 16.084 37.45 16.559 37.78 17.089 C 38.56 16.321 39.621 15.665 40.919 15.436 C 44.097 14.873 46.467 16.089 46.458 18.524 L 46.456 25.746 L 46.456 25.746 Z M 60.957 24.664 L 60.957 25.783 C 59.227 26.067 57.842 25.695 57.854 24.254 C 57.737 24.231 57.77 24.269 57.738 24.301 C 57.405 24.611 57.192 24.879 56.761 25.149 C 54.264 26.72 48.698 26.307 48.438 23.415 C 48.128 19.961 52.888 20.109 56.094 19.436 C 57.205 19.204 57.92 18.922 57.805 17.964 C 57.629 16.493 54.552 16.529 53.135 16.819 C 51.837 17.083 51.415 17.794 51.392 18.731 L 49.102 18.731 C 49.202 16.831 50.884 15.682 53.365 15.384 C 56.004 15.068 59.261 15.458 59.815 17.722 C 60.291 19.669 59.666 22.035 59.946 24.006 C 60.014 24.476 60.256 24.75 60.957 24.665 L 60.957 24.664 Z M 57.803 20.224 C 56.519 20.846 54.877 20.904 53.416 21.204 C 51.782 21.541 50.339 22.042 50.746 23.515 C 51.223 25.247 55.268 24.756 56.633 23.899 C 57.186 23.554 57.803 22.799 57.803 22.257 L 57.803 20.224 Z M 25.748 24.664 L 25.748 25.783 C 23.991 26.077 22.702 25.675 22.643 24.254 C 22.393 24.438 22.225 24.679 21.983 24.869 C 19.371 26.929 12.94 26.361 13.23 22.892 C 13.472 20.012 17.834 20.035 20.69 19.482 C 21.966 19.235 22.978 18.866 22.556 17.73 C 22.099 16.498 19.208 16.529 17.884 16.826 C 16.559 17.123 16.273 17.813 16.18 18.729 L 13.94 18.729 C 13.993 16.676 15.964 15.559 18.603 15.339 C 21.611 15.088 24.511 15.732 24.73 18.262 C 24.887 20.067 24.545 22.027 24.73 23.823 C 24.78 24.311 24.925 24.778 25.747 24.663 L 25.747 24.665 L 25.748 24.664 Z M 22.643 20.224 C 21.41 20.812 19.848 20.887 18.45 21.159 C 16.747 21.491 15.25 21.905 15.533 23.442 C 15.86 25.215 19.848 24.763 21.265 24.008 C 22.969 23.102 22.613 21.584 22.643 20.224 Z M 63.22 15.597 L 67.596 23.693 L 71.641 15.597 L 73.982 15.597 L 68.154 26.491 C 67.628 27.369 66.859 28.476 65.704 28.985 C 64.688 29.429 63.508 29.36 62.381 29.252 L 62.381 27.909 C 63.083 27.942 63.742 28.015 64.415 27.815 C 65.559 27.474 66.16 26.514 66.445 25.689 L 60.803 15.596 L 63.22 15.596 L 63.22 15.597 Z M 5.89 27.659 C 7.738 27.534 8.263 29.544 6.5 29.936 C 4.234 30.439 3.568 27.816 5.89 27.659 Z" style="fill: rgb(255, 255, 255);"></path>
</svg>