<svg xmlns="http://www.w3.org/2000/svg" width="104" height="40" fill="none">
  <path fill-rule="evenodd" d="M 89.37 15 C 92.639 15 95.91 15.361 97.582 16.084 L 97.577 16.082 C 99.252 16.806 100.091 17.829 100.091 19.155 L 100.091 22.902 C 100.091 24.209 99.247 25.218 97.565 25.932 C 95.877 26.643 92.605 27 89.335 27 C 86.066 27 82.598 26.989 80.722 25.947 C 78.73 24.841 79.464 23.998 80.267 23.076 C 80.747 22.529 81.247 21.953 81.215 21.277 C 81.184 20.665 80.627 20.232 80.068 19.797 C 79.264 19.173 78.46 18.548 79.22 17.389 C 80.657 15.199 85.518 15 89.37 15 Z M 93.839 24.582 C 94.591 24.219 94.968 23.601 94.968 22.721 L 94.968 19.338 C 94.968 18.439 94.596 17.803 93.839 17.43 C 93.085 17.059 91.002 16.875 89.191 16.875 C 87.382 16.875 85.296 17.06 84.543 17.43 C 83.79 17.802 83.413 18.439 83.413 19.339 L 83.413 22.72 C 83.413 23.599 83.788 24.219 84.543 24.581 C 85.296 24.941 87.382 25.121 89.191 25.121 C 91.002 25.121 93.085 24.941 93.839 24.581 L 93.839 24.582 Z M 10.137 26.934 C 8.181 26.934 6.325 26.786 4.564 26.491 C 2.849 26.21 1.287 25.74 0 25.119 L 1.749 23.448 C 3.013 23.971 4.371 24.364 5.823 24.625 C 7.275 24.887 8.929 25.016 10.786 25.016 C 12.266 25.016 13.395 24.886 14.164 24.625 C 14.934 24.362 15.32 23.987 15.32 23.492 C 15.32 23.048 14.871 22.724 13.971 22.526 C 13.075 22.326 11.171 22.106 8.268 21.864 C 5.482 21.651 3.515 21.306 2.369 20.825 C 1.224 20.345 0.651 19.626 0.651 18.668 C 0.651 17.631 1.442 16.772 3.022 16.09 C 4.606 15.409 6.917 15.067 9.959 15.067 C 11.798 15.067 13.549 15.214 15.224 15.511 C 16.894 15.806 18.214 16.214 19.183 16.739 L 17.64 18.336 C 16.51 17.91 15.255 17.571 13.919 17.33 C 12.621 17.1 11.252 16.983 9.874 16.984 C 8.567 16.984 7.542 17.098 6.791 17.326 C 6.038 17.554 5.663 17.906 5.663 18.384 C 5.663 18.831 6.123 19.151 7.042 19.347 C 7.96 19.542 9.9 19.766 12.864 20.018 C 15.613 20.251 17.546 20.613 18.675 21.108 C 19.803 21.601 20.365 22.326 20.365 23.286 C 20.365 24.438 19.458 25.333 17.652 25.972 C 15.843 26.611 13.34 26.93 10.137 26.93 L 10.137 26.933 L 10.137 26.934 Z M 35.731 27 C 32.198 27 28.853 26.643 27.294 25.929 C 25.737 25.215 24.957 24.111 24.957 22.614 L 24.957 15.198 L 30.02 15.198 L 30.02 22.409 C 30.02 23.341 30.356 24.002 31.032 24.39 C 31.709 24.781 33.807 24.974 35.734 24.974 C 37.662 24.974 39.76 24.779 40.436 24.39 C 40.865 24.145 40.974 23.779 41.112 23.313 C 41.193 23.044 41.282 22.741 41.45 22.409 C 41.619 22.078 42.215 21.653 42.826 21.216 C 43.595 20.668 44.388 20.103 44.381 19.688 C 44.373 19.274 43.58 18.736 42.814 18.216 C 42.209 17.803 41.618 17.402 41.451 17.083 C 41.21 16.628 41.451 15.198 41.451 15.198 L 46.514 15.198 C 46.514 15.198 46.565 16.612 46.514 17.083 C 46.48 17.368 46.363 17.775 46.242 18.197 C 46.091 18.724 45.934 19.271 45.927 19.625 C 45.919 20.053 46.087 20.718 46.245 21.351 C 46.367 21.831 46.48 22.291 46.514 22.614 C 46.659 24.109 45.734 25.216 44.175 25.929 C 42.612 26.643 39.271 27 35.736 27 L 35.731 27 Z M 66.302 26.802 C 66.302 26.802 65.1 26.131 64.127 24.571 C 63.773 24.005 63.656 23.525 63.548 23.085 C 63.409 22.513 63.284 22.004 62.681 21.447 C 62.189 20.992 61.435 20.738 60.574 20.449 C 59.868 20.21 59.091 19.949 58.334 19.534 C 56.839 18.716 56.188 17.766 56.188 17.766 L 56.188 26.802 L 51.805 26.802 L 51.805 15.198 L 58.766 15.198 C 58.766 15.198 60.9 16.84 61.851 17.843 C 62.368 18.387 62.543 18.875 62.718 19.367 C 62.909 19.903 63.101 20.441 63.734 21.06 C 64.799 22.102 65.466 22.365 66.254 22.673 C 66.746 22.857 67.202 23.063 67.617 23.288 C 68.505 23.772 68.88 24.263 68.88 24.263 L 68.88 15.198 L 73.234 15.198 L 73.234 26.802 L 66.302 26.802 Z" clip-rule="evenodd" style="fill: rgb(255, 255, 255);"></path>
</svg>